<?xml version="1.0" standalone="no"?>
<!DOCTYPE svg PUBLIC "-//W3C//DTD SVG 20010904//EN"
 "http://www.w3.org/TR/2001/REC-SVG-20010904/DTD/svg10.dtd">
<svg version="1.0" xmlns="http://www.w3.org/2000/svg"
 width="288.000000pt" height="288.000000pt" viewBox="0 0 288.000000 288.000000"
 preserveAspectRatio="xMidYMid meet">
<metadata>
Created by potrace 1.14, written by Peter Selinger 2001-2017
</metadata>
<g transform="translate(0.000000,288.000000) scale(0.100000,-0.100000)"
fill="#000000" stroke="none">
<path d="M155 2856 c-46 -20 -94 -64 -115 -107 -20 -37 -20 -67 -20 -1304 0
-1237 0 -1267 20 -1304 10 -21 34 -51 52 -66 72 -61 -13 -58 1360 -57 1229 2
1259 2 1296 21 43 22 98 80 114 120 7 17 11 433 11 1281 1 1171 0 1258 -16
1295 -23 50 -41 71 -96 107 l-45 28 -1265 0 c-1021 -1 -1272 -3 -1296 -14z"/>
</g>
</svg>
